<svg version="1" xmlns="http://www.w3.org/2000/svg" width="2730.667" height="2730.667" viewBox="0 0 2048.000000 2048.000000"><path d="M954.9 46.4c-.2.2-4.9.7-10.4 1-5.6.4-11.2.8-12.5 1.1-1.4.2-5.2.6-8.5 1-11.3 1.1-15 1.6-20 2.5-2.7.5-7 1.2-9.5 1.5-2.5.4-6.5 1.1-9 1.7-2.5.5-5.6 1.2-7 1.4-31.4 5.8-67.6 20.1-92.4 36.6-17.7 11.9-38.6 32.7-50 49.8-2 3-4.1 6.1-4.7 6.8-.6.7-4.6 8.2-8.9 16.5-10.8 21.2-15.9 34.9-23.4 62.7-1.9 7-7.2 33.9-8.1 40.5-.3 2.7-.8 5.7-1 6.5-.2.8-.6 4-1 7-.3 3-.7 6.8-.9 8.5-.3 1.6-.7 6.4-1 10.5-.4 4.1-.8 9.1-1.1 11-.5 3.9-1.5 20.1-2.1 32.5-.4 10.1-.4 62.9 0 71.5.5 8.5 1.6 23.6 2.1 28 .3 1.9.7 6.2 1 9.5.3 3.3.7 7.6 1 9.5.3 1.9.7 5.9 1.1 8.8.3 2.9.7 6.3 1 7.5.3 1.2.6 3.8.9 5.8.2 2 1.1 7.6 1.9 12.5.9 4.9 1.8 10.6 2.2 12.8.3 2.1.7 4.6.9 5.5 1.1 5 4.7 23 5.1 25.2.3 1.4 3.1 13 6.2 25.8l5.7 23.2-6 3.7c-11.6 7-24 18.7-32.8 31-1.7 2.3-3.6 4.1-4.3 3.8-.6-.2-6-3.6-11.9-7.5-5.8-3.9-10.9-7.1-11.1-7.1-.3 0-3.2-1.8-6.5-4s-6.3-4-6.6-4c-.2 0-2.8-1.5-5.6-3.4-2.9-1.8-7.3-4.5-9.9-6-2.7-1.4-6.9-3.8-9.5-5.3-13.2-7.4-20.4-11.2-37.8-19.7-18.4-9.1-32.2-15.6-33-15.6-.3 0-3.3-1.3-6.7-2.9-21.9-10-80.5-29.6-103.3-34.6-.5-.2-4.4-1.2-8.5-2.3-17.4-4.7-48.4-10.9-63-12.7-2.5-.3-5.2-.7-6-.9-.8-.3-5.1-.8-9.5-1.1-4.4-.4-9.6-.9-11.5-1.2-1.9-.2-12.5-.6-23.6-.7-21.7-.3-42.3 1.4-56.4 4.6-2.5.5-5.2 1.1-6 1.3-41.5 8.8-80.1 33.6-110.2 70.6-7.4 9.2-22.8 31-22.8 32.4 0 .3-1.5 2.9-3.3 5.8-9 14.3-20.7 38.1-30.9 62.7-2.2 5.2-4.2 10-4.4 10.6-.3.6.5 1.4 1.8 1.7 1.4.4 4.1 1.3 6.1 2.2 2 .8 3.9 1.5 4.2 1.6.5 0 9 4.5 14.9 7.8 15.9 9 32.8 23.6 43.5 37.4 16.6 21.5 21.7 40.5 14.4 54.2-8.4 15.6-33.7 28-64.3 31.2-12 1.3-34 .7-43.2-1.2-1.6-.3-3.9-.7-5.3-.9-1.4-.3-5.1-1.2-8.2-2.1-3-.9-5.7-1.4-6-1.2-.7.8-5.7 21.6-7.8 32.7-.3 1.4-.7 3.6-1 5-1 4.7-1.5 7.5-2.5 14-.6 3.6-1.3 7.6-1.6 9-.2 1.4-.7 5.2-1 8.5-.3 3.3-.7 7.1-1 8.5-2.2 12.4-2.1 56.5.1 67.5.3 1.1.7 3.6 1 5.5.2 1.9.7 4.8 1 6.5.3 1.6.8 4 1 5.1 1.1 6.5 6.1 22.6 9.9 32.1 25.1 62 82.6 109.2 181.1 148.5 8.3 3.3 19.3 7.5 24.5 9.4 5.2 1.9 10.4 3.8 11.5 4.4 8.8 4 67.8 21.1 81.4 23.5 1.9.3 3.7.7 4 .9.3.2 2.2.7 4.1 1 1.9.3 6 1 9 1.7 3 .6 6.4 1.2 7.5 1.4 1.1.2 3.1.6 4.5.9 1.3.3 4.2.8 6.5 1.1 2.2.3 4.7.8 5.5 1 .8.2 3.5.7 6 1 2.5.3 7.2 1 10.5 1.5s8 1.2 10.5 1.5c2.5.3 6.1.7 8 1 6.7.9 10.6 1.3 18.5 2 4.4.4 8.8.9 9.7 1 1 .2 6.4.7 12 1.1 5.7.3 12.1.8 14.3.9 21.2 1.6 72.2 2.2 99.9 1.2 7-.3 12.4-.2 12 .2-.5.4-8.1 5.7-16.9 11.6-33.4 22.6-64.3 46.5-95.5 73.9-24.6 21.7-55 51.8-72 71.5-3 3.6-5.9 6.9-6.5 7.5-1.7 1.9-6.9 8-10.5 12.6-1.9 2.4-3.9 4.8-4.5 5.4-9.1 9.9-49.7 68.5-58.9 85.1-.9 1.6-2.9 5-4.5 7.5-7.8 12.8-23.1 42.7-29.8 58.5-10.2 24-18.3 51-20.8 68.5-.3 2.5-.8 5.2-1 6-.9 3.3-1.8 16.1-1.9 27.5-.3 14 1.4 30.3 4.4 43 1.1 5 2.3 10.1 2.6 11.5.3 1.4.9 3.4 1.4 4.5.5 1.1 1.6 4 2.4 6.5 3.2 9.6 6.9 17.7 16.2 35 6.2 11.6 21.8 32.6 35.7 48.4 7.9 9 24.9 26 35.7 35.6 4.5 4.1 8.8 8 9.4 8.5.6.6 3.9 3.4 7.4 6.3l6.3 5.2 4.7-5.7c8.7-10.8 20.4-21.5 32.2-29.3 3.6-2.4 7.6-5.1 9-6 3.9-2.6 17.4-8.7 25.3-11.5 20.7-7.2 38.9-7.2 49.7-.1 11 7.3 17.2 24.2 17 46.6-.1 11-.3 13.2-1.5 21-2.9 19.5-12.2 43.9-22.6 59.2l-3.9 5.7 12.3 7.4c23.6 14.4 54.2 30.3 68.7 35.5 3 1.1 8 3 11 4.2 12.3 4.8 40.3 12 52.3 13.4 2.6.3 6.8.9 9.5 1.2 6.6.8 28.5.8 35.7 0 26.3-3 47.1-9.2 70.5-21 10.5-5.2 28.2-15.6 30-17.6.3-.3 2.8-2.1 5.5-4 15.7-10.8 29.2-22.6 50.5-44 20.9-20.9 28.5-29.5 48.2-54.2 6.3-7.9 14.9-19 19.2-24.8 4.2-5.8 8.2-11.2 8.9-12 .7-.8 6.5-9.4 12.9-19 24.8-37.4 47.5-79.9 65.5-122.5 3-7.2 6-14.4 6.8-16 2.4-5.4 18.8-48.8 19-50.5.1-.3 2.8-8.8 6.2-19 3.3-10.2 7.7-24.7 9.8-32.2 2.1-7.6 4.2-13.8 4.6-13.8.4 0 1.1 1.5 1.4 3.3.4 1.7 3.8 13.3 7.5 25.7 16.6 54.7 35 101.2 59.6 150.3 8.7 17.4 24.5 46 29.6 53.4 1.5 2.3 2.8 4.4 2.8 4.8 0 1.2 23.2 34.9 33.6 48.7 10.3 13.7 27 35 32.5 41.3 1.4 1.6 6.1 7 10.4 12 8.5 9.7 36.8 38.3 45.1 45.6 9.7 8.4 10.9 9.4 17.4 14.5 19.8 15.4 47.1 31.6 63.7 37.8 2.1.8 4.7 1.7 5.8 2.2 1.1.4 2.2.8 2.5.9.3 0 3.4 1 7 2.2 8 2.6 10.3 3.2 20 5.2 8.4 1.6 10.9 2 18.5 2.7 12.5 1.2 35.1.7 44.1-1 1.1-.2 4.4-.7 7.4-1.2 3-.4 5.7-.8 6-.9.3-.1 3.2-.7 6.5-1.5s6.2-1.4 6.5-1.5c.3-.1 1.9-.5 3.5-.9 28.8-7.3 71.5-27.3 111.7-52.3l3.8-2.3-4.6-7.1c-8.5-13.2-16.7-32.9-20-48.4-2.7-12.6-2.9-14.8-2.9-31.5 0-14.6.3-17.3 2.5-24 4.1-13 10.1-20.6 19.6-24.7 5.4-2.3 21.8-2.7 30.4-.7 3.6.9 7.2 1.7 8.1 1.9 6.3 1.3 23.1 8.8 32.9 14.6 13.5 8.1 29.7 22.1 39.3 34.1l4.6 5.7 6.3-5.2c23.7-19.6 48.7-44.7 65.4-65.7 50.4-63.3 62.2-128.6 37.2-206-1.6-5.2-3.4-10.4-3.9-11.5-.5-1.1-2.2-5.5-3.8-9.7-5.3-13.4-15.9-35.8-24.1-50.8-5.2-9.4-20.7-35.6-22.2-37.5-.4-.6-4.5-6.6-8.9-13.5-15-23-29.1-42.3-45.8-63-23.2-28.6-56.4-62.9-86.7-89.6-16.8-14.8-44.1-37.2-55.9-45.8-2.2-1.6-4.2-3.1-4.4-3.2-.2-.2 2.3-3.4 5.5-7 6.9-7.9 15.5-20.8 18.1-27 1.6-4 2.1-4.4 5.3-4.5 10.8-.3 34.2-1.6 43.8-2.5 10.4-.8 16.8-1.4 21.2-1.9 2.5-.3 6.8-.7 9.5-1 2.8-.2 6.6-.7 8.5-1 1.9-.3 5.5-.7 8-1 2.5-.3 5.9-.7 7.5-1 1.7-.3 4.6-.7 6.5-1 1.9-.2 4.6-.7 6-.9 1.4-.3 4.3-.7 6.5-1 2.2-.4 7.8-1.3 12.5-2.2 4.7-.9 9.6-1.8 11-2 1.4-.3 4.1-.9 6-1.4 1.9-.5 5.1-1.1 7-1.4 13.4-2 57.1-14.5 84.5-24.1 8.8-3.1 17.1-6 18.5-6.5 3.6-1.1 32.9-13.1 43.7-17.8 16-7.1 41.1-19.9 50.5-25.9 2.1-1.2 4-2.3 4.3-2.3.8 0 17.4-11.1 26-17.3 31.9-23.2 56.7-51.7 71.2-81.7 4.2-8.8 10.5-25.3 11.8-31 .2-.8 1.2-5.3 2.3-10 2.8-11.5 3.4-15.5 4.7-31.1 1.7-18.9.8-48.1-2.2-67.4-.3-2.2-.7-4.9-.9-6-1.3-10.1-6.3-35.8-9-47-3.6-14.2-3.4-13.8-5.7-13.1-7.9 2.3-19.7 4.6-28.7 5.4-8.9.9-27.3.7-33.8-.3-28-4.3-46.1-11.9-58-24.3-3.6-3.8-7.1-11.7-7.6-17.2-1.9-22.4 20.1-54.1 52.5-75.8 8.2-5.5 25.9-14.5 32-16.4l3.8-1.1-2-5.1c-1.1-2.8-2.6-6.5-3.3-8.1-.8-1.7-2.8-6.4-4.6-10.5-10.1-23.9-25-51.3-38.8-71.5-38.9-57-91-88-156.7-93.2-16.5-1.3-49.5-.7-64 1.2-1.6.2-5.2.6-8 .9-2.7.4-6.1.8-7.5 1-1.4.3-4.3.7-6.5 1.1-8.5 1.2-13.4 2-20 3.4-2.7.6-6.1 1.3-7.5 1.6-1.4.2-3.7.7-5.2 1.1-1.5.3-3 .5-3.3.5-.2 0-1.9.5-3.7 1-1.8.5-4.6 1.2-6.2 1.5-1.6.3-8.8 2.1-16 4-7.2 1.9-13.8 3.7-14.6 3.9-12.9 3-53.5 16.4-73.2 24-34.2 13.4-76.2 33.9-110.5 54.1-18.6 10.9-53.9 33.9-74.8 48.7-8.1 5.7-25 18.5-36.2 27.4-5.1 4-9.3 7.1-9.3 6.9 0-.3.9-2.9 2.1-5.8 4.4-11.2 16.1-45.7 20.5-60.6 5.5-18.8 7.6-25.8 7.9-27.2.2-.8 1.9-7.6 3.9-15 3.1-11.8 8.6-35.7 10-43 .2-1.4 1.6-8.6 3-16 3-15.7 3.6-19.4 4.2-23.5.2-1.7.6-4.1.8-5.5.3-1.4.8-5 1.1-8 .3-3 .8-6.2 1-7 .2-.8.7-4.4 1-8 .3-3.6.8-8.1 1-10 1-8.4 2-20.9 3-37 .5-8.3.6-62.1 0-72-.6-12.9-1.5-26.3-2-32.5-1.1-12.4-2.3-23.3-3-27.5-.2-1.4-.6-5-1-8-.9-7.8-1.4-10.8-2.6-16.8-.6-2.9-1.2-6.5-1.4-8-.2-1.5-.9-5-1.5-7.7-.6-2.8-1.3-5.8-1.5-6.7-.2-1-1.7-6.8-3.4-13-24.3-90.4-73.5-140.9-159.7-163.9-6.3-1.6-12.4-3.2-13.7-3.5-1.2-.2-6-1.1-10.7-2-4.7-.9-9.4-1.8-10.5-2-1-.2-3.7-.6-6-.9-2.2-.3-5.1-.8-6.5-1-3-.6-8.6-1.3-16-2.1-3-.3-7.1-.7-9-1-1.9-.2-7.8-.6-13-1-5.2-.3-9.8-.8-10.2-1-.5-.3-.8.5-.9 1.8-.1 4.6-.8 12.4-1.4 17.3-.7 5-.9 6-1.9 10.5-.3 1.4-.8 3.8-1.1 5.3-.3 1.6-1.9 6.9-3.5 11.7-12.7 38.2-37.6 66.4-59.3 67.1-10.1.4-18.7-4.1-30.3-15.6-11.1-10.8-19.1-23.2-26.3-40.1-2.7-6.4-7.3-20.8-8.6-27-1.7-8.1-2.3-12.7-3.1-22.4-.7-8.7-.8-9.3-1.5-8.6z"/></svg>